<svg xmlns="http://www.w3.org/2000/svg" width="928" height="218" fill="none" viewBox="0 0 928 218"><rect width="130.792" height="130.792" x="4.045" y="35.551" fill="#C4C4C4" stroke="#424242" stroke-width="8.09" rx="8.09"/><path fill="#000" d="M38.1252 137.887L26.3944 68.8171H40.4511L48.9459 124.437H51.3729L61.8902 69.525H77.5651L88.2846 124.437H90.7117L98.7008 68.8171H112.859L101.33 137.887H79.1831L69.3737 83.0761H69.8793L59.9688 137.887H38.1252Z"/><rect width="130.792" height="130.792" x="163.481" y="50.849" fill="#C4C4C4" stroke="#424242" stroke-width="8.09" rx="8.09" transform="rotate(-9.20377 163.481 50.8489)"/><path fill="#000" d="M244.448 142.527C237.194 143.702 231.233 143.371 226.564 141.532C221.95 139.616 218.292 136.213 215.587 131.324C212.949 126.424 210.999 120.081 209.738 112.295C208.465 104.442 208.301 97.7412 209.246 92.1925C210.258 86.6331 212.644 82.1827 216.406 78.8413C220.234 75.4892 225.775 73.2254 233.029 72.05C240.283 70.8746 246.222 71.2783 250.846 73.2609C255.536 75.2328 259.206 78.7019 261.855 83.6683C264.57 88.6239 266.564 95.0281 267.836 102.881C269.12 110.801 269.25 117.507 268.228 123C267.272 128.482 264.869 132.832 261.02 136.051C257.226 139.193 251.702 141.352 244.448 142.527ZM242.572 130.947C246.765 130.268 249.791 128.924 251.651 126.915C253.567 124.829 254.61 121.996 254.782 118.417C254.942 114.771 254.602 110.353 253.761 105.162C252.92 99.9708 251.814 95.6765 250.444 92.2787C249.13 88.8036 247.262 86.3401 244.841 84.8883C242.41 83.37 239.098 82.9505 234.905 83.6298C230.779 84.2984 227.769 85.7423 225.874 87.9616C224.036 90.1035 223.009 93.036 222.792 96.7592C222.565 100.416 222.872 104.839 223.713 110.03C224.544 115.155 225.605 119.388 226.898 122.73C228.257 126.061 230.147 128.453 232.568 129.905C235.045 131.279 238.379 131.627 242.572 130.947Z"/><rect width="130.792" height="130.792" x="328.045" y="39.551" fill="#52FF00" stroke="#2F4E32" stroke-width="8.09" rx="8.09"/><path fill="#fff" d="M368.125 141.887V72.8171H395.127C400.655 72.8171 405.273 73.525 408.981 74.9407C412.756 76.3565 415.554 78.7162 417.375 82.0197C419.262 85.3232 420.206 89.8065 420.206 95.4697C420.206 100.459 419.296 104.672 417.476 108.111C415.723 111.482 413.026 113.976 409.386 115.594L420.206 141.887H405.543L396.441 118.729H382.081V141.887H368.125ZM382.081 107.302H395.43C397.992 107.302 400.048 106.83 401.599 105.886C403.149 104.875 404.262 103.492 404.936 101.74C405.61 99.9193 405.947 97.863 405.947 95.5708C405.947 91.7954 405.071 88.9638 403.318 87.0761C401.565 85.1884 398.835 84.2445 395.127 84.2445H382.081V107.302Z"/><rect width="130.792" height="130.792" x="483.045" y="39.551" fill="#C4C4C4" stroke="#424242" stroke-width="8.09" rx="8.09"/><path fill="#000" d="M521.777 141.887V72.8171H548.171C553.565 72.8171 558.082 73.5924 561.723 75.143C565.431 76.6262 568.397 78.8173 570.622 81.7163C572.847 84.6153 574.431 88.1211 575.375 92.2336C576.386 96.3461 576.892 101.032 576.892 106.29C576.892 111.616 576.42 116.437 575.476 120.752C574.6 125.066 573.083 128.808 570.925 131.977C568.768 135.146 565.869 137.606 562.228 139.359C558.588 141.045 554.037 141.887 548.576 141.887H521.777ZM535.733 130.157H547.767C550.936 130.157 553.498 129.55 555.453 128.336C557.408 127.123 558.891 125.437 559.902 123.28C560.981 121.055 561.689 118.527 562.026 115.695C562.43 112.796 562.633 109.661 562.633 106.29C562.633 103.054 562.43 100.122 562.026 97.4922C561.621 94.7955 560.88 92.5033 559.801 90.6156C558.79 88.6604 557.307 87.1772 555.352 86.1659C553.464 85.0872 550.936 84.5479 547.767 84.5479H535.733V130.157Z"/><rect width="130.792" height="130.792" x="646.354" y="32.151" fill="#FFC700" stroke="#787026" stroke-width="8.09" rx="8.09" transform="rotate(6.91518 646.354 32.1511)"/><path fill="#fff" d="M680.514 139.38L688.83 70.8121L702.684 72.4923L695.793 129.314L722.899 132.602L721.474 144.348L680.514 139.38Z"/><rect width="130.792" height="130.792" x="793.045" y="57.551" fill="#C4C4C4" stroke="#424242" stroke-width="8.09" rx="8.09"/><path fill="#000" d="M836.496 159.887V90.817H882.408V102.447H850.452V119.234H876.341V130.661H850.452V148.258H882.408V159.887H836.496Z"/></svg>